<?xml version="1.0" encoding="UTF-8" standalone="no"?>
<!-- Created with Inkscape (http://www.inkscape.org/) -->

<svg
   xmlns:svg="http://www.w3.org/2000/svg"
   xmlns="http://www.w3.org/2000/svg"
   version="1.0"
   width="165"
   height="165"
   id="svg2">
  <defs
     id="defs5" />
  <path
     d="m 36.004385,152.26493 c -2.372905,-2.3729 -2.889238,-4.05576 -2.889238,-9.41678 l 0,-6.52753 -5.35017,0 -5.350171,0 0.402743,-32.07591 C 23.215064,72.585086 26.501134,36.37695 29.748786,27.871678 33.729491,17.446613 54.710249,10.172314 81.376135,9.9718121 109.08881,9.76344 131.48745,17.119171 135.63344,27.789956 c 0.57805,1.487766 2.37867,13.536445 4.00138,26.774841 2.41222,19.679533 2.95037,29.318364 2.95037,52.845133 l 0,28.77532 -5.00266,0.36196 -5.00267,0.36196 -0.35182,6.72813 c -0.29678,5.67563 -0.84629,7.1171 -3.51271,9.21451 -2.29289,1.80358 -4.13573,2.2985 -6.71077,1.80226 -5.38976,-1.03865 -7.66971,-4.60282 -7.66971,-11.98982 l 0,-6.34363 -31.781617,0 -31.781627,0 0,6.97715 c 0,6.13552 -0.374121,7.27143 -3.101485,9.41678 -4.114256,3.23627 -8.134806,3.08132 -11.665736,-0.44962 z M 129.9779,77.595812 c 1.42346,-1.423471 -3.0704,-34.870506 -5.27603,-39.268544 -0.95432,-1.902898 -4.17259,-2.05992 -42.219187,-2.05992 l -41.186123,0 -1.074588,2.826379 c -0.591023,1.554507 -1.923732,9.36749 -2.961578,17.362184 -1.037845,7.994693 -2.130727,15.689306 -2.428627,17.099138 -1.189282,5.628347 -0.557184,5.69833 48.362006,5.354427 25.185817,-0.177057 46.238677,-0.768206 46.784127,-1.313664 z m -22.21335,-50.28263 c 2.02464,-0.776929 2.60169,-5.155261 0.68482,-5.196046 -20.950667,-0.445759 -51.255533,0.194558 -52.16314,1.102165 -0.785001,0.785002 -0.675218,1.78227 0.329459,2.992832 1.267174,1.526851 5.305458,1.815534 25.396852,1.815534 13.139552,0 24.727949,-0.321518 25.752009,-0.714485 z"
     id="path1873"
     style="fill:#007edb;fill-opacity:1;stroke:none" />
  <path
     d="m 105.19841,116.98413 a 7.4206347,7.4206347 0 1 1 -14.841266,0 7.4206347,7.4206347 0 1 1 14.841266,0 z"
     transform="translate(25.31746,-11.785714)"
     id="path3593"
     style="color:#000000;fill:#ffffff;fill-opacity:1;fill-rule:nonzero;stroke:none;stroke-width:0.34999999;marker:none;visibility:visible;display:inline;overflow:visible;enable-background:accumulate" />
  <path
     d="m 105.19841,116.98413 a 7.4206347,7.4206347 0 1 1 -14.841266,0 7.4206347,7.4206347 0 1 1 14.841266,0 z"
     transform="translate(-55.361112,-11.567464)"
     id="path3593-6"
     style="color:#000000;fill:#ffffff;fill-opacity:1;fill-rule:nonzero;stroke:none;stroke-width:0.34999999;marker:none;visibility:visible;display:inline;overflow:visible;enable-background:accumulate" />
</svg>
